<?xml version="1.0" encoding="UTF-8" standalone="no"?>
<svg width="456" height="456" viewBox="0 0 456 456" version="1.1" xmlns="http://www.w3.org/2000/svg">
  <defs>
    <filter id="sg" x="-30%" y="-30%" width="160%" height="160%">
      <feGaussianBlur in="SourceGraphic" stdDeviation="3" result="b"/>
      <feMerge><feMergeNode in="b"/><feMergeNode in="SourceGraphic"/></feMerge>
    </filter>
  </defs>
  <!-- White trophy (foreground over gradient background) -->
  <g>
    <path d="M 134,135 L 323,135 L 290,260 Q 271,294 228,294 Q 185,294 166,260 Z" fill="#FFFFFF"/>
    <path d="M 144,153 C 80,153 64,205 84,246 C 94,269 130,280 164,261" fill="none" stroke="#FFFFFF" stroke-width="23" stroke-linecap="round"/>
    <path d="M 312,153 C 376,153 392,205 372,246 C 362,269 326,280 292,261" fill="none" stroke="#FFFFFF" stroke-width="23" stroke-linecap="round"/>
    <line x1="173" y1="191" x2="283" y2="191" stroke="rgba(255,255,255,0.4)" stroke-width="6" stroke-linecap="round"/>
    <line x1="184" y1="228" x2="272" y2="228" stroke="rgba(255,255,255,0.3)" stroke-width="5" stroke-linecap="round"/>
    <rect x="208" y="294" width="39" height="45" rx="4" fill="#FFFFFF"/>
    <rect x="159" y="339" width="139" height="30" rx="15" fill="#FFFFFF"/>
  </g>
  <!-- White stars -->
  <g filter="url(#sg)">
    <polygon points="228.0,42.0 236.2,66.7 262.2,66.9 241.3,82.3 249.2,107.1 228.0,92.0 206.8,107.1 214.7,82.3 193.8,66.9 219.8,66.7" fill="#FFFFFF"/>
    <polygon points="164.0,83.0 169.3,97.7 184.9,98.2 172.6,107.8 176.9,122.8 164.0,114.0 151.1,122.8 155.4,107.8 143.1,98.2 158.7,97.7" fill="#FFFFFF" opacity="0.9"/>
    <polygon points="292.0,83.0 297.3,97.7 312.9,98.2 300.6,107.8 304.9,122.8 292.0,114.0 279.1,122.8 283.4,107.8 271.1,98.2 286.7,97.7" fill="#FFFFFF" opacity="0.9"/>
  </g>
</svg>